<?xml version="1.0" encoding="UTF-8"?>
<!-- Generator: Adobe Illustrator 21.1.0, SVG Export Plug-In . SVG Version: 6.00 Build 0)  -->
<svg version="1.1" id="Слой_1" xmlns="http://www.w3.org/2000/svg" xmlns:xlink="http://www.w3.org/1999/xlink" x="0px" y="0px" viewBox="0 0 140 80" style="enable-background:new 0 0 140 80;" xml:space="preserve">
<style type="text/css">
	.st0{fill:#E52713;}
	.st1{fill:none;}
</style>
<title>AlfaBank</title>
<path class="st0" d="M24,24.1c2.3,0,3,1.6,3.6,3.2c0.3,0.7,6.1,16.8,6.3,17.2c0,0.1,0,0.4-0.2,0.4c-0.2,0.1-3.3,1.3-3.4,1.3  c-0.2,0.1-0.4,0-0.4-0.2c-0.1-0.2-1.3-3.7-1.5-4.1c-0.4,0-8.3,0-8.7,0c-0.1,0.4-1.4,3.9-1.5,4.1c-0.1,0.2-0.2,0.3-0.4,0.2  c-0.2-0.1-3.2-1.3-3.4-1.3c-0.2-0.1-0.3-0.3-0.2-0.4c0.2-0.6,6-16.4,6.3-17.2C21,25.7,21.7,24.1,24,24.1z M13.7,52.8  c-0.2,0-0.3,0.2-0.3,0.3v3.8c0,0.2,0.1,0.3,0.3,0.3h20.7c0.2,0,0.3-0.2,0.3-0.3v-3.8c0-0.2-0.1-0.3-0.3-0.3H13.7 M24,29.3L21,38.1  H27L24,29.3L24,29.3z M100.8,42.3c0,1-0.6,1.7-1.6,1.7c-0.4,0-0.7,0-1.3-0.1v-3c0.2,0,0.7-0.1,1.3-0.1  C100.3,40.7,100.8,41.2,100.8,42.3z M102.9,42.1c0-1.9-1.1-3.1-3.4-3.1c-0.6,0-1,0.1-1.6,0.2l0-2.7c0.4-0.1,1-0.1,1.7-0.1  c0.7,0,1.5,0,2.3,0.1L102,35c-0.8-0.2-2.1-0.3-3-0.3c-0.9,0-2.4,0.2-3.1,0.4l0,9.9c1.1,0.4,2.1,0.6,3.2,0.6  C101.6,45.5,102.9,44.2,102.9,42.1z M79.2,41.6c0,1.4-0.5,2.3-1.5,2.3c-0.4,0-0.6,0-1-0.2v-4.1c0.5-0.2,0.7-0.2,1.1-0.2  C78.7,39.3,79.2,40.1,79.2,41.6 M72.3,41.6c0-1.5,0.5-2.3,1.4-2.3c0.4,0,0.6,0,1.1,0.2v4.1c-0.4,0.1-0.6,0.2-1,0.2  C72.7,43.8,72.3,43,72.3,41.6 M76.7,47.8v-2.7c0.2,0.1,0.7,0.4,1.6,0.4c1.7,0,2.9-1.4,2.9-3.9c0-2.7-1.2-3.9-3.2-3.9  c-0.5,0-0.8,0.1-1.3,0.2v-3.2h-2v3.2c-0.4-0.2-0.7-0.2-1.3-0.2c-2,0-3.2,1.2-3.2,3.9c0,2.5,1.1,3.9,2.9,3.9c0.8,0,1.3-0.2,1.6-0.4  v2.7H76.7 M61.9,45.4v-7.2c-1.1-0.3-1.9-0.5-3-0.5c-1.1,0-1.9,0.1-3,0.5v3.7c0,1,0,1.3-0.1,1.6c-0.1,0.3-0.3,0.6-0.7,0.9l0.5,1.2  c1.6-0.4,2.2-1.1,2.2-3.3v-2.7c0.5-0.1,0.6-0.1,1-0.1c0.4,0,0.5,0,1,0.1v5.9H61.9z M86.1,43.8C85.6,43.9,85.4,44,85,44  c-0.7,0-1.1-0.3-1.1-1c0-0.8,0.5-1,1.5-1c0.2,0,0.5,0,0.6,0.1v0.5C86,43.2,86,43.5,86.1,43.8z M88.6,44.6c-0.5-0.8-0.7-1.3-0.7-2.2  v-2c0-1.1-0.1-1.5-0.4-1.9c-0.4-0.6-1.1-0.8-2.3-0.8c-0.9,0-1.7,0.1-2.5,0.3l0.3,1.4c0.6-0.1,1.1-0.1,1.5-0.1c1.3,0,1.5,0.2,1.5,1.2  v0.4c-0.3-0.1-0.6-0.1-1-0.1c-2,0-3,1-3,2.5c0,1.5,1.1,2.3,2.5,2.3c0.5,0,1-0.1,1.4-0.3c0.3-0.1,0.4-0.2,0.7-0.4  c0.2,0.3,0.6,0.6,0.7,0.6L88.6,44.6z M107.8,43.8c-0.4,0.1-0.7,0.2-1.1,0.2c-0.7,0-1.1-0.3-1.1-1c0-0.8,0.5-1,1.5-1  c0.2,0,0.5,0,0.6,0.1v0.5C107.7,43.2,107.7,43.5,107.8,43.8z M110.3,44.6c-0.5-0.8-0.7-1.3-0.7-2.2v-2c0-1.1-0.1-1.5-0.4-1.9  c-0.4-0.6-1.1-0.8-2.3-0.8c-0.9,0-1.7,0.1-2.5,0.3l0.3,1.4c0.6-0.1,1.1-0.1,1.5-0.1c1.3,0,1.4,0.2,1.4,1.2v0.4  c-0.3-0.1-0.6-0.1-1-0.1c-2,0-3,1-3,2.5c0,1.5,1.1,2.3,2.5,2.3c0.5,0,1-0.1,1.4-0.3c0.3-0.1,0.4-0.2,0.7-0.4  c0.2,0.3,0.6,0.6,0.8,0.6L110.3,44.6z M67.4,42.8c0,0.7-0.3,1.2-1.2,1.2c-0.3,0-0.4,0-0.9-0.1v-2.2c0.5-0.1,0.6-0.1,0.9-0.1  C67.1,41.6,67.4,42.1,67.4,42.8z M63.4,37.8l0,7.2c0.9,0.4,2,0.6,2.9,0.6c2.1,0,3.2-1.1,3.2-2.9c0-1.6-1-2.6-2.8-2.6  c-0.5,0-0.7,0.1-1.3,0.2v-2.4H63.4z M117.4,45.4v-7.5h-2v2.8h-2.2v-2.8h-2v7.5h2v-3.1h2.2v3.1H117.4z M125.5,45.4  c0,0-1.1-2.3-1.3-2.8c-0.3-0.6-0.6-1-1.2-1.1v0c0.4-0.1,0.7-0.3,1.1-1.1c0.3-0.7,0.4-0.9,0.6-1.1c0.2-0.2,0.5-0.1,0.5-0.1l0.1-1.4  c-0.3,0-0.6,0-0.9,0c-0.5,0-0.8,0.2-1.1,0.4c-0.2,0.2-0.3,0.5-0.5,0.9c-0.2,0.4-0.3,0.7-0.5,1.1c-0.2,0.4-0.3,0.6-0.8,0.6h-0.3v-2.8  h-2v7.5h2v-3.1l0.3,0c0.6,0,0.7,0.1,1,0.7c0.4,0.7,1,2.3,1,2.3H125.5z M52.2,45.4h2.3l-3.4-10.5c-0.4-0.1-0.8-0.2-1.3-0.2  c-0.5,0-0.7,0.1-1.1,0.2l-3.6,10.5h2.2c0,0,0.3-0.9,0.6-2.1h3.8C52,44.4,52.2,45.4,52.2,45.4z M48.4,41.6c0,0,0.6-2.1,0.7-2.4  c0.3-0.9,0.6-2.2,0.6-2.2h0.1c0,0,0.3,1.4,0.6,2.2c0.1,0.3,0.7,2.4,0.7,2.4H48.4z M91.9,40.4c-0.7,0-1.3,0.6-1.3,1.3  c0,0.7,0.6,1.3,1.3,1.3c0.7,0,1.3-0.6,1.3-1.3C93.2,40.9,92.6,40.4,91.9,40.4z"/>
<rect x="2.7" y="13.4" class="st1" width="138.5" height="54.5"/>
</svg>