<svg id="Слой_1" data-name="Слой 1" xmlns="http://www.w3.org/2000/svg" xmlns:xlink="http://www.w3.org/1999/xlink" viewBox="0 0 140 80"><defs><style>.cls-1{fill:#24a84d;}.cls-2{fill:url(#linear-gradient);}.cls-3{fill:#f59d1a;}.cls-4{fill:#e7001b;}.cls-5{fill:#fc5f01;}.cls-6{fill:#e30520;}.cls-7{fill:#0081c4;}.cls-8{fill:#0f5787;}.cls-9{fill:url(#Blue_Gradient_01);}</style><linearGradient id="linear-gradient" x1="60.81" y1="50.84" x2="78.59" y2="50.84" gradientTransform="translate(0.4 -0.51) rotate(0.41)" gradientUnits="userSpaceOnUse"><stop offset="0.01" stop-color="#0fa5e1"/><stop offset="0.35" stop-color="#0c9cda"/><stop offset="0.91" stop-color="#0483c6"/><stop offset="1" stop-color="#037ec2"/></linearGradient><linearGradient id="Blue_Gradient_01" x1="59.1" y1="23.36" x2="121.03" y2="23.36" gradientUnits="userSpaceOnUse"><stop offset="0" stop-color="#241e5c"/><stop offset="1" stop-color="#004d9f"/></linearGradient></defs><title>BankCard</title><path class="cls-1" d="M51.92,49,48,57.24h-.39l.07-10-5.41,0-.12,17,4.59,0a3.09,3.09,0,0,0,2.82-1.78l3.87-8.22h.39l-.07,10,5.41,0,.12-17-4.59,0A3.09,3.09,0,0,0,51.92,49"/><path class="cls-1" d="M31.62,49.31,29.31,57.1h-.39l-2.2-7.83a3.09,3.09,0,0,0-3-2.26l-5.4,0-.12,17,5.41,0,.07-10h.39l3,10.07,3.86,0,3.16-10h.39l-.07,10,5.41,0,.12-17-5.4,0a3.09,3.09,0,0,0-3,2.21"/><path class="cls-1" d="M61.59,55l-.07,9.27,5.4,0,0-5.41,5.81,0a5.79,5.79,0,0,0,5.49-3.82Z"/><path class="cls-2" d="M72.85,47.37l-12-.09a8.5,8.5,0,0,0,8.31,7l9.3.07a5.89,5.89,0,0,0,.12-1.16,5.8,5.8,0,0,0-5.75-5.84"/><g id="g3110"><path id="path2997" class="cls-3" d="M50.87,23.36a10.09,10.09,0,1,1-10.09-10,10,10,0,0,1,10.09,10Z"/><path id="path2995" class="cls-4" d="M38.43,23.36a10.09,10.09,0,1,1-10.09-10,10,10,0,0,1,10.09,10Z"/><path id="path2999" class="cls-5" d="M34.56,15.49a10,10,0,0,0,0,15.74,10,10,0,0,0,0-15.74Z"/></g><path id="path2997-2" data-name="path2997" class="cls-6" d="M121,55.33a10.09,10.09,0,1,1-10-10.07,10,10,0,0,1,10,10.07Z"/><path id="path2995-2" data-name="path2995" class="cls-7" d="M108.58,55.24a10.09,10.09,0,1,1-10-10.07,10,10,0,0,1,10,10.07Z"/><path id="path2999-2" data-name="path2999" class="cls-8" d="M104.77,47.34a10,10,0,0,0-.11,15.74,10,10,0,0,0,.11-15.74Z"/><path class="cls-9" d="M82.61,13.71,74.5,33.06H69.21l-4-15.44A2.12,2.12,0,0,0,64,15.92a20.93,20.93,0,0,0-4.94-1.65l.12-.56h8.52a2.33,2.33,0,0,1,2.31,2l2.11,11.19,5.21-13.17Zm20.73,13c0-5.1-7.06-5.39-7-7.67,0-.69.68-1.43,2.12-1.62a9.45,9.45,0,0,1,4.93.87l.88-4.1a13.44,13.44,0,0,0-4.68-.86c-4.95,0-8.43,2.63-8.46,6.39,0,2.79,2.48,4.34,4.38,5.26s2.6,1.56,2.6,2.4c0,1.3-1.56,1.87-3,1.89A10.47,10.47,0,0,1,90,28.09l-.91,4.24a15.15,15.15,0,0,0,5.56,1c5.26,0,8.7-2.6,8.71-6.62m13.06,6.32H121l-4-19.34h-4.27a2.28,2.28,0,0,0-2.13,1.42l-7.51,17.93h5.25l1-2.89h6.42Zm-5.58-6.85,2.63-7.26L115,26.2ZM89.76,13.71,85.62,33.06h-5l4.14-19.34Z"/></svg>