<svg id="Слой_1" data-name="Слой 1" xmlns="http://www.w3.org/2000/svg" viewBox="0 0 140 80"><defs><style>.cls-1{fill:#164193;}</style></defs><title>Samsung Pay</title><path class="cls-1" d="M41.65,63V40.15h3.68v1.68a4.47,4.47,0,0,1,2.27-1.66A7.69,7.69,0,0,1,50,39.78a8.13,8.13,0,0,1,6,2.52,8.88,8.88,0,0,1,1.85,9.49,8.46,8.46,0,0,1-4.49,4.69,7.63,7.63,0,0,1-3.17.64,7.78,7.78,0,0,1-2.58-.42,4.63,4.63,0,0,1-2.33-1.61V63H41.65M49.9,43a4.63,4.63,0,0,0-3.47,1.4,5.63,5.63,0,0,0-1.36,3.95,5.94,5.94,0,0,0,1.33,4.09,4.55,4.55,0,0,0,3.54,1.39,4.68,4.68,0,0,0,3.41-1.45,5.4,5.4,0,0,0,1.46-3.86,5.83,5.83,0,0,0-1.44-4.07A4.67,4.67,0,0,0,49.9,43"/><polyline class="cls-1" points="83.73 63 86.83 55.8 79.71 40.15 83.59 40.15 88.65 51.9 93.32 40.15 97.23 40.15 87.54 63 83.73 63"/><path class="cls-1" d="M73.87,56.81V55.08a4.63,4.63,0,0,1-2.33,1.61,7.83,7.83,0,0,1-2.58.42,7.66,7.66,0,0,1-3.17-.64,8.2,8.2,0,0,1-2.72-1.91,8.11,8.11,0,0,1-1.77-2.78,8.74,8.74,0,0,1-.65-3.29,8.64,8.64,0,0,1,2.5-6.2,8.14,8.14,0,0,1,6-2.52,7.61,7.61,0,0,1,2.41.39,4.45,4.45,0,0,1,2.28,1.66V40.15h3.68V56.81H73.87M65.78,44.46a5.82,5.82,0,0,0-1.43,4.07,5.4,5.4,0,0,0,1.46,3.86,4.68,4.68,0,0,0,3.41,1.45,4.53,4.53,0,0,0,3.53-1.39,5.9,5.9,0,0,0,1.33-4.09,5.64,5.64,0,0,0-1.36-3.95A4.62,4.62,0,0,0,69.24,43a4.67,4.67,0,0,0-3.47,1.44"/><polyline class="cls-1" points="101.08 29.58 100.89 18.45 104.4 18.45 104.4 32.49 99.36 32.49 95.86 20.97 95.77 20.97 95.97 32.49 92.49 32.49 92.49 18.45 97.74 18.45 101.01 29.58 101.08 29.58"/><polyline class="cls-1" points="37.31 19.76 35.37 32.62 31.54 32.62 34.17 18.45 40.48 18.45 43.1 32.62 39.28 32.62 37.39 19.76 37.31 19.76"/><polyline class="cls-1" points="53.83 29.29 55.59 18.45 61.36 18.45 61.68 32.62 58.13 32.62 58.03 19.88 57.96 19.88 55.59 32.62 52.01 32.62 49.63 19.88 49.55 19.88 49.46 32.62 45.91 32.62 46.24 18.45 52.02 18.45 53.76 29.29 53.83 29.29"/><path class="cls-1" d="M83.55,30.49a1.28,1.28,0,0,0,1.37-1,3.21,3.21,0,0,0,0-.54V18.45h3.6V28.61c0,.26,0,.8,0,.94-.24,2.65-2.34,3.5-5,3.5s-4.7-.85-4.93-3.5a9.2,9.2,0,0,1,0-.94V18.45h3.59V28.93a2.7,2.7,0,0,0,0,.54,1.27,1.27,0,0,0,1.36,1"/><path class="cls-1" d="M25.58,28.62a1.89,1.89,0,0,1,0,1,1.23,1.23,0,0,1-1.39,1,1.26,1.26,0,0,1-1.41-1.29V28H19v1.09c0,3.17,2.48,4.11,5.14,4.11s4.68-.87,5-3.23a7,7,0,0,0,0-2.33c-.6-3-6-3.85-6.38-5.51a1.71,1.71,0,0,1,0-.74,1.17,1.17,0,0,1,1.29-1,1.21,1.21,0,0,1,1.32,1.28v.89H28.9v-1c0-3.09-2.78-3.57-4.79-3.57-2.51,0-4.58.84-5,3.15a5.19,5.19,0,0,0,0,1.9c.62,2.9,5.66,3.73,6.39,5.57"/><path class="cls-1" d="M71.66,28.6a1.87,1.87,0,0,1,0,1,1.21,1.21,0,0,1-1.36.94,1.25,1.25,0,0,1-1.41-1.27V27.94H65.14V29c0,3.14,2.46,4.07,5.1,4.07s4.62-.86,5-3.2a6.79,6.79,0,0,0,0-2.31c-.59-2.93-5.91-3.8-6.31-5.45a1.88,1.88,0,0,1,0-.73,1.15,1.15,0,0,1,1.28-.94,1.19,1.19,0,0,1,1.31,1.26v.87h3.5v-1c0-3.05-2.75-3.53-4.72-3.53-2.5,0-4.54.81-4.91,3.11a4.48,4.48,0,0,0,0,1.89c.61,2.88,5.59,3.7,6.31,5.52"/><path class="cls-1" d="M113.11,30.35a1.32,1.32,0,0,0,1.45-1,3.87,3.87,0,0,0,0-.54v-2h-1.45V24.66h5v3.81c0,.27,0,.46-.05.94-.24,2.56-2.48,3.5-5,3.5s-4.74-.93-5-3.5a6.59,6.59,0,0,1-.06-.94v-6a7.59,7.59,0,0,1,.07-.93c.31-2.66,2.45-3.5,5-3.5s4.73.83,5,3.5a6.37,6.37,0,0,1,0,.93V23h-3.57v-.79a3,3,0,0,0,0-.54,1.3,1.3,0,0,0-1.42-1,1.32,1.32,0,0,0-1.41,1,3.24,3.24,0,0,0-.05.67v6.48c0,.18,0,.38,0,.54a1.33,1.33,0,0,0,1.46,1"/></svg>