<svg id="Слой_1" data-name="Слой 1" xmlns="http://www.w3.org/2000/svg" viewBox="0 0 140 90">
  <defs>
    <style>.cls-1{fill:#251f20;}</style>
  </defs>
  <title>Sovest</title>
  <path class="cls-1" d="M25.43,35.69a9,9,0,1,0,0,18,9,9,0,1,0,0-18m-7.62,9a7.63,7.63,0,1,1,7.62,7.6,7.63,7.63,0,0,1-7.62-7.6m31.45,0a5.44,5.44,0,1,0-5.42,5.35,5.29,5.29,0,0,0,5.42-5.35m8.07,5.16h3.11c2,0,3.79-.76,3.79-2.86a2.37,2.37,0,0,0-1.84-2.52,2.3,2.3,0,0,0,1.52-2.3c0-2-1.69-2.67-3.41-2.67H57.3V49.88Zm-9.72-5.16a3.77,3.77,0,1,1-7.54,0,3.77,3.77,0,1,1,7.54,0m67.87,5.16h3.28c2,0,3.49-1.06,3.49-3.07s-1.63-3.11-3.49-3.11h-1.7V39.55h-1.58ZM73,49.88h5.93V48.44H74.54V45.29h3.94V43.78H74.54V41h4.34V39.55H73Zm-50.9-5.16a3.71,3.71,0,0,0,3.89,3.89,4.27,4.27,0,0,0,2.95-1.14v1.82a6.32,6.32,0,0,1-3,.76,5.36,5.36,0,1,1,0-10.71,6.32,6.32,0,0,1,3,.76v1.84a4.27,4.27,0,0,0-2.95-1.14,3.71,3.71,0,0,0-3.89,3.92m66,0a3.72,3.72,0,0,1,3.9-3.9A4.25,4.25,0,0,1,94.89,42V40.12a6.28,6.28,0,0,0-3-.76,5.36,5.36,0,1,0,0,10.71,6.17,6.17,0,0,0,3-.76V47.49A4.34,4.34,0,0,1,92,48.63a3.74,3.74,0,0,1-3.9-3.91M108.64,41V39.55h-7.52V41h3v8.89h1.59V41ZM58.91,45.27h1.61c1.4,0,2,.48,2,1.54,0,1.46-1.36,1.63-2.5,1.63H58.91V45.27Zm58.15-.05h1.57c1.7,0,2,.87,2,1.61,0,1.59-1.63,1.59-2.07,1.59h-1.53ZM58.91,41H60.5c1.06,0,1.8.44,1.8,1.4,0,1.16-.93,1.48-1.82,1.48H58.91Z"/>
</svg>