<svg width="92" height="33" xmlns="http://www.w3.org/2000/svg" xmlns:xlink="http://www.w3.org/1999/xlink"><defs><path id="a" d="M32.51 32.743h59.315V6.506H32.51z"/></defs><g fill="none" fill-rule="evenodd"><path d="M6.25 0L4.688 4.283h21.669L27.919 0H6.251zM3.906 6.424L2.34 10.706H24.01l1.563-4.282H3.905zm-2.341 6.423L0 17.13h21.669l1.562-4.283H1.564z" fill="#009FDF"/><mask id="b" fill="#fff"><use xlink:href="#a"/></mask><path d="M46.066 18.762v.09c.99.364 1.936 1 2.432 1.407 1.53 1.271 2.207 2.95 2.207 5.13 0 3.587-1.892 6.174-5 6.99-.946.273-1.936.364-3.783.364H32.51V6.506h8.332c1.711 0 2.882.09 3.917.363 3.018.817 5 2.905 5 6.218 0 1.77-.63 3.27-1.666 4.268-.45.453-1.081.999-2.027 1.407zm-8.332 2.768v6.9h3.603c1.08 0 2.071-.09 2.793-.771.72-.681 1.035-1.543 1.035-2.679 0-.862-.225-1.679-.676-2.269-.765-.953-1.711-1.18-3.332-1.18h-3.423zm-.045-4.539h2.927c.9 0 1.35 0 1.801-.136 1.217-.363 1.983-1.452 1.983-2.95 0-1.77-.811-2.543-1.983-2.905-.495-.136-.99-.182-1.981-.182h-2.747v6.173zM58.54 32.743V10.908h-7.52V6.506h20.897l-1.486 4.402h-6.667v21.835h-5.224zm14.998 0V6.506h16.935l-1.486 4.402h-10.27v5.81h4.19c3.377 0 5.134.818 6.35 1.862.946.817 2.567 2.633 2.567 6.22 0 3.54-1.666 5.491-3.063 6.49-1.62 1.135-3.332 1.453-6.8 1.453h-8.423zm5.18-4.403h3.919c1.485 0 2.386-.363 3.017-1.18.315-.409.765-1.136.765-2.497 0-1.362-.45-2.315-1.35-2.997-.54-.408-1.262-.634-2.478-.634H78.72v7.308z" fill="#0A2973" mask="url(#b)"/></g></svg>