<svg id="Слой_1" data-name="Слой 1" xmlns="http://www.w3.org/2000/svg" viewBox="0 0 140 80"><defs><style>.cls-1,.cls-2{fill:#006bb2;}.cls-1{fill-rule:evenodd;}</style></defs><title>Webmoney</title><path class="cls-1" d="M111.64,26.49a13.65,13.65,0,0,1,6,1.4q.43.2.86.45l-1.27,1.13-1.9-2-3.21,2.86-1.91-2.08-6,5.39,3.83,4.23-1.51,1.33,3.78,4.23-1.5,1.32,5.4,6,3.2-2.95L120.24,51a14.68,14.68,0,0,1-1.81,1.2,13.75,13.75,0,1,1-6.78-25.71Z"/><polygon class="cls-1" points="109.14 39.37 112.41 36.43 115.35 39.7 112.08 42.64 109.14 39.37 109.14 39.37"/><polygon class="cls-1" points="111.46 45.02 114.73 42.08 117.68 45.35 114.41 48.3 111.46 45.02 111.46 45.02"/><polygon class="cls-1" points="106.8 33.79 110.07 30.84 113.01 34.12 109.74 37.06 106.8 33.79 106.8 33.79"/><polygon class="cls-1" points="112.8 32.2 115.25 30 117.46 32.45 115.01 34.66 112.8 32.2 112.8 32.2"/><polygon class="cls-1" points="117.16 42.32 119.61 40.11 121.82 42.56 119.37 44.77 117.16 42.32 117.16 42.32"/><polygon class="cls-1" points="119.31 47.27 121.77 45.06 123.97 47.52 121.52 49.73 119.31 47.27 119.31 47.27"/><polygon class="cls-1" points="120.3 35.92 121.94 34.45 123.41 36.08 121.78 37.55 120.3 35.92 120.3 35.92"/><polygon class="cls-1" points="118.21 31.06 119.85 29.59 121.32 31.22 119.69 32.7 118.21 31.06 118.21 31.06"/><polygon class="cls-1" points="122.39 40.78 124.03 39.3 125.5 40.94 123.86 42.41 122.39 40.78 122.39 40.78"/><polygon class="cls-1" points="115.06 37.14 117.51 34.93 119.72 37.38 117.27 39.59 115.06 37.14 115.06 37.14"/><path class="cls-2" d="M21.92,37.87h-.11L19.74,45.7H18L15.5,34.58h1.76L19,42.88h.11l2-8.3h1.4l2.18,8.3h.11l1.6-8.3h1.84L25.75,45.7H24.05Z"/><path class="cls-2" d="M35.24,44v1.19a5.53,5.53,0,0,1-2.78.72c-2.64,0-3.72-1.63-3.72-4.11s1.21-4.11,3.56-4.11c2,0,3.17,1.27,3.17,3.83v.58H30.36c0,1.88.77,2.71,2.39,2.71A4.79,4.79,0,0,0,35.24,44ZM30.39,41H34c-.08-1.65-.88-2.31-1.73-2.31S30.57,39.46,30.39,41Z"/><path class="cls-2" d="M38.54,38.25a4.72,4.72,0,0,1,2.12-.58c1.95,0,3,1.35,3,3.86,0,2.93-1.41,4.36-3.69,4.36a7.27,7.27,0,0,1-3.06-.77v-11l1.63-.39Zm0,6.29a3.64,3.64,0,0,0,1.44.25c1.16,0,2-.72,2-3.26,0-2-.72-2.64-1.77-2.64a3.28,3.28,0,0,0-1.71.52Z"/><path class="cls-2" d="M50.79,43.35h.08l3.36-8.77h1.95V45.7H54.48V37.64h-.14l-3.2,8.07h-1l-3.2-7.88h-.14V45.7H45.38V34.58h1.9Z"/><path class="cls-2" d="M57.9,41.78c0-2.75,1.51-4.11,3.58-4.11s3.58,1.36,3.58,4.11-1.43,4.11-3.58,4.11S57.9,44.46,57.9,41.78Zm5.51,0c0-2.12-.86-3-1.93-3s-1.93.89-1.93,3,.82,3,1.93,3S63.41,43.93,63.41,41.78Z"/><path class="cls-2" d="M66.54,38.83a8,8,0,0,1,4-1.16c1.88,0,2.59.74,2.59,2.35V45.7H71.5V40.38c0-1.24-.61-1.46-1.41-1.46a4.33,4.33,0,0,0-1.91.56V45.7H66.54Z"/><path class="cls-2" d="M81.09,44v1.19a5.53,5.53,0,0,1-2.78.72c-2.64,0-3.72-1.63-3.72-4.11s1.21-4.11,3.56-4.11c2,0,3.17,1.27,3.17,3.83v.58H76.21c0,1.88.77,2.71,2.38,2.71A4.79,4.79,0,0,0,81.09,44ZM76.24,41h3.59c-.08-1.65-.88-2.31-1.73-2.31S76.41,39.46,76.24,41Z"/><path class="cls-2" d="M87.43,37.93h1.68l-2.84,7.85c-.78,2.17-1.74,3.29-3.55,3.29V47.79c1.07,0,1.73-.85,2.1-2l-3-7.85h1.73l2,5.77h.09Z"/></svg>