<svg id="Слой_1" data-name="Слой 1" xmlns="http://www.w3.org/2000/svg" viewBox="0 0 140 80"><defs><style>.cls-1{fill:red;}</style></defs><title>YandexMoney</title><path class="cls-1" d="M19.24,41.67l-3.06,6.88H13.94l3.36-7.36c-1.58-.8-2.64-2.26-2.64-4.95,0-3.77,2.39-5.65,5.22-5.65h2.89v18H20.84V41.67Zm1.61-9.44h-1c-1.56,0-3.06,1-3.06,4s1.38,3.82,3.06,3.82h1Z"/><path d="M32.09,35.9V48.55H30.16V42.88H27.25v5.67h-2V35.9h2v5.37h2.91V35.9ZM42.16,51H40.41V48.55H35V51H33.22V46.94H34c1.15-2.69,1.28-6.6,1.28-10V35.9h5.88v11h1ZM39.23,37.48H37v.23c0,2.66-.13,6.55-1.18,9.24h3.36Zm8.34,11.25c-2.61,0-4.22-2.08-4.22-6,0-4.07,1.13-7,3.82-7,2.11,0,3.49,1.58,3.49,5.88v1.08H45.38c0,2.86.8,4.37,2.36,4.37a4.39,4.39,0,0,0,2.49-.85l.45,1.51A5,5,0,0,1,47.56,48.73ZM45.4,41.07h3.24c0-2.16-.35-3.74-1.48-3.74S45.53,38.81,45.4,41.07Zm9.22,1.18v6.3h-2V35.9h2v5.85l3-5.85h2l-3.14,6,3.59,6.7H58Zm5.72,0c0-4,1.53-6.5,4.49-6.5a4,4,0,0,1,2.34.65l-.28,1.86a3.35,3.35,0,0,0-2.08-.88c-1.41,0-2.41,1.58-2.41,4.77s.75,5,2.34,5a3.2,3.2,0,0,0,2.13-.78l.45,1.46a3.83,3.83,0,0,1-2.64,1C62,48.73,60.34,46.54,60.34,42.22Z"/><path d="M80.64,48.55H73l-.18,3h-1v-4h.53c.88-.73,1.31-2.74,1.56-5.3s.33-6.63.4-11.63h6.28V47.52H81.8v4h-1ZM79.31,31.63H75.42c-.08,4.54-.2,8-.4,10.6s-.63,4.47-1.31,5.3h5.6Z"/><path d="M87,47.77a3.23,3.23,0,0,0,2.56-1.36l.38,1a3.66,3.66,0,0,1-3,1.43c-2.69,0-3.92-2.44-3.92-6.58s1.56-6.58,3.69-6.58,3.59,2.29,3.19,6.78H84.21C84.26,45.89,85.16,47.77,87,47.77ZM84.23,41.5h4.6c.2-3.36-.8-4.87-2.08-4.87S84.33,38.33,84.23,41.5Z"/><path d="M97.67,42.45H93.35v6.1H92.17V35.9h1.18v5.6h4.32V35.9h1.18V48.55H97.67Z"/><path d="M101.64,35.9h1.18v4.7h.93c2.41,0,4,1.31,4,3.94a3.69,3.69,0,0,1-4,4h-2Zm1.18,5.62v6.1h.75c1.78,0,3-.88,3-3.06s-1.05-3-2.86-3Z"/><path d="M110.9,36.88V48.55h-1.15V35.9h5.35v1Z"/><path d="M122.81,39.74a17.2,17.2,0,0,1,.1-1.73h-.08a11.22,11.22,0,0,1-.68,1.63L118,48.55h-1V35.9h1.1v8.79c0,.68-.05,1.23-.1,1.78h.08a13.79,13.79,0,0,1,.68-1.68l4.12-8.89h1V48.55h-1.13Z"/></svg>