<svg xmlns="http://www.w3.org/2000/svg" viewBox="0 0 2792.37 1000"><path d="M433,0,288.68,83.32V250L144.34,166.66,0,250V750l433,250,144.34-83.32V750l144.33-83.32V833.34L866.05,750V250Zm0,833.34L144.34,666.67V333.33L433,500ZM721.71,500,577.38,583.33V416.67L433,333.33V166.66L721.71,333.33Z"/><path d="M1157.63,150.05a154.42,154.42,0,0,1,44.13,6.21q20.94,6.21,34.38,15.06A241.48,241.48,0,0,1,1260,189q10.35,8.85,14.88,15l4.72,6.32-40,41.07q-1.23-1.68-3.39-4.74t-9.64-10.42a98.15,98.15,0,0,0-16.32-13q-8.84-5.58-23.2-10.32a93.1,93.1,0,0,0-29.35-4.74q-41.27,0-69,28.44T1061,307.39q0,42.35,27.71,70.78t69,28.44a103.52,103.52,0,0,0,30.69-4.53q14.67-4.53,24.32-10.75a157.71,157.71,0,0,0,17-12.53,65.45,65.45,0,0,0,10.67-10.95l3.29-4.42,38,41.07a78.12,78.12,0,0,1-5,6.64q-3.39,4.1-15,14.53A159.29,159.29,0,0,1,1236.76,444q-13.24,7.89-34.69,14.42a151.55,151.55,0,0,1-44.44,6.53q-67.34,0-113.61-46.23T997.73,307.39q0-65.08,46.29-111.21T1157.63,150.05Z"/><path d="M1504.33,387.23H1390.81l-25.25,71.19h-67.32L1414,156.36h67.12L1596.9,458.42h-67.33Zm-20.94-56L1447.67,232l-35.92,99.22Z"/><path d="M1638.77,156.36h124q45.36,0,75.23,29.18t29.86,72.25q0,43.08-29.76,72.25t-75.33,29.17H1702v99.21h-63.23Zm121.93,58.35H1702v86.15h58.7q18.88,0,31.51-12.42t12.62-30.55a41.5,41.5,0,0,0-12.62-30.64Q1779.59,214.71,1760.7,214.71Z"/><path d="M1924.5,458.42V156.36h63.23V458.42Z"/><path d="M2033.71,156.36h231.13v58.35h-84V458.42h-63V214.71h-84.16Z"/><path d="M2458.2,387.23H2344.69l-25.25,71.19h-67.33l115.77-302.06H2435l115.77,302.06h-67.32Zm-20.94-56L2401.54,232l-35.92,99.22Z"/><path d="M2792.37,458.42H2592.65V156.36h63.22V400.29h136.5Z"/><path d="M1266.83,541.36V843.42h-63v-123h-126v123h-63.22V541.36h63.22V662.27h126V541.36Z"/><path d="M1371.83,803.72q-46.3-46.23-46.29-111.32t46.29-111.22q46.28-46.14,113.51-46.13t113.51,46.13q46.29,46.13,46.29,111.22t-46.29,111.32Q1552.56,850,1485.34,850T1371.83,803.72Zm46.49-181.78q-27.51,28.74-27.51,70.56T1418.32,763q27.5,28.65,67,28.65t67-28.65q27.5-28.65,27.5-70.46t-27.5-70.56q-27.51-28.76-67-28.76T1418.32,621.94Z"/><path d="M1832.13,755q0-15.16-14.88-24.43T1780.92,715q-21.45-6.21-42.69-14.64T1702,672.59q-15-19.37-15-49.07,0-36.66,28.64-62.57t74.4-25.9a140.26,140.26,0,0,1,34.9,4.31q16.83,4.32,27.61,10.11a156.65,156.65,0,0,1,18.88,11.8q8.11,6,11.6,10.43l3.7,4.21L1849,617q-2.48-2.94-6.88-7.26t-18.58-11.48a63.92,63.92,0,0,0-29.14-7.16q-18.07,0-29,9.48t-11,23q0,15.16,14.88,24.32t36.13,15.49q21.24,6.31,42.69,14.74t36.44,27.81q15,19.38,15,49.07,0,41.92-29.66,68.46T1788,850a152.37,152.37,0,0,1-39.72-5.16q-19.18-5.16-31.61-12.32a188.37,188.37,0,0,1-21.86-14.53q-9.43-7.38-13.55-12.43l-4.72-5.27,38-38.76q2.87,3.38,8.11,8.75t23.29,14.43a83.3,83.3,0,0,0,37.77,9.05q22.79,0,35.62-11A35,35,0,0,0,1832.13,755Z"/><path d="M1918.14,541.36h231.13v58.35h-83.95V843.42h-63V599.71h-84.16Z"/></svg>