<svg id="Layer_1" data-name="Layer 1" xmlns="http://www.w3.org/2000/svg" viewBox="0 0 3055.99 1000"><path d="M433,0,288.68,83.32V250L144.34,166.66,0,250V750l433,250,144.34-83.32V750l144.33-83.32V833.34L866.05,750V250Zm0,833.34L144.34,666.67V333.33L433,500ZM721.71,500,577.38,583.33V416.67L433,333.33V166.66L721.71,333.33Z"/><path d="M1298.65,193.36V490.25h-80.54V375.76H1110V490.25h-80.53V193.36H1110V303.71h108.07V193.36Z"/><path d="M1662.17,231.15q48.13,46.26,48.14,110.65t-48.14,110.66Q1614,498.74,1545,498.73t-117.18-46.27q-48.13-46.26-48.13-110.66t48.13-110.65Q1476,184.88,1545,184.88T1662.17,231.15Zm-176.08,50.1q-23.8,24.12-23.8,60.55t23.8,60.66q23.81,24.23,59,24.23t58.9-24.23q23.7-24.21,23.7-60.66T1604,281.25q-23.71-24.12-58.9-24.12t-59,24.12Z"/><path d="M1914.32,399.15q0-8.07-7.66-14.08t-19.77-9.93q-12.12-3.93-26.92-8.39a215.89,215.89,0,0,1-29.39-11.28,136.65,136.65,0,0,1-26.71-16.36q-12.12-9.51-19.77-25.67t-7.66-37.26q0-36.44,31.57-63.87t80.84-27.43a159,159,0,0,1,38.31,4.45q18,4.46,29.5,10.66a203.63,203.63,0,0,1,20.18,12.32q8.7,6.1,12,10.87l3.93,4.14L1946,276.18a82.8,82.8,0,0,0-6.11-6.32q-4-3.83-16.77-10.45a55.31,55.31,0,0,0-25.78-6.63q-13.66,0-22.77,7.66t-9.11,17.81q0,8.07,7.66,14t19.77,9.94q12.12,4,26.71,8.49A232.31,232.31,0,0,1,1949,322a134.42,134.42,0,0,1,26.91,16.36q12.12,9.53,19.77,25.67t7.66,37.26q0,41.21-32.5,69.36t-86.33,28.15a168.85,168.85,0,0,1-42.34-5.27q-20.4-5.28-33.54-12.74a235.16,235.16,0,0,1-23.29-14.9q-10.14-7.46-14.91-12.84l-4.55-5.18,46.58-48.65a21.42,21.42,0,0,0,3,3.31q2.18,2.08,8.49,7.67A91.14,91.14,0,0,0,1837.3,420a81.77,81.77,0,0,0,17.6,7.56,70.08,70.08,0,0,0,21.12,3.31q17,0,27.64-9.32T1914.32,399.15Z"/><path d="M2046.08,193.36h246v72.26h-82.81V490.25h-80.54V265.62h-82.6Z"/><path d="M1138.46,680.24q-24.23,24.12-24.22,60.55t24.22,60.66q24.22,24.22,60.66,24.23a98.31,98.31,0,0,0,42.65-9.53q20.09-9.51,29-19.25l8.9-9.52,46.58,50.93c-1.11,1.65-2.73,3.83-4.86,6.52s-7.12,7.45-14.91,14.28a160.93,160.93,0,0,1-25.26,18.12q-13.56,7.86-35.82,14.18a168.73,168.73,0,0,1-46.27,6.31q-69.15,0-117.28-46.27t-48.13-110.66q0-64.38,48.13-110.65t117.28-46.28a162.4,162.4,0,0,1,45.34,6.22Q1266,596.29,1280,605a221.59,221.59,0,0,1,24.43,17.39q10.46,8.7,15,14.91l4.76,6-48.86,50.93q-1.24-1.65-3.31-4.24a93.2,93.2,0,0,0-9.53-9.11,122.64,122.64,0,0,0-15.52-11.6q-8.09-5.07-21.22-9.1a89.91,89.91,0,0,0-26.61-4Q1162.69,656.12,1138.46,680.24Z"/><path d="M1568.29,825.68h-97.51l-21.11,63.56h-87l112.42-296.89h89l112.42,296.89h-87Zm-21.11-63.56-27.54-87-27.53,87Z"/><path d="M1738.3,592.35h133.54q48.86,0,79.5,29.5T1982,696.28q0,44.93-30.75,74.43t-79.39,29.5h-53v89H1738.3Zm129.19,72.26h-48.65v63.56h48.65a33.47,33.47,0,0,0,24-9.53q9.94-9.52,9.94-22.25t-9.94-22.26A33.42,33.42,0,0,0,1867.49,664.61Z"/><path d="M2060.89,889.24V592.35h80.54V889.24Z"/><path d="M2211.65,592.35H2457.6v72.26h-82.81V889.24h-80.54V664.61h-82.6Z"/><path d="M2674,825.68h-97.51l-21.12,63.56h-87l112.42-296.89h89l112.42,296.89h-87Zm-21.12-63.56-27.53-87-27.54,87Z"/><path d="M3056,889.24H2844V592.35h80.53V817.19H3056Z"/></svg>