<svg xmlns="http://www.w3.org/2000/svg" viewBox="0 0 20 20"><path d="M19 0h-3c-.552 0-1 .447-1 1s.448 1 1 1h2v15.132l-1.445-.964c-.336-.225-.774-.225-1.11 0L13 17.798l-2.445-1.63c-.336-.225-.774-.225-1.11 0L7 17.798l-2.445-1.63c-.336-.225-.774-.225-1.11 0L2 17.132V2h1c.552 0 1-.447 1-1s-.448-1-1-1H1C.448 0 0 .447 0 1v18c0 .37.203.708.528.882s.72.153 1.027-.05L4 18.202l2.445 1.63c.336.225.774.225 1.11 0L10 18.202l2.445 1.63c.336.225.774.225 1.11 0L16 18.202l2.445 1.63c.168.11.36.168.555.168.162 0 .324-.04.472-.118.325-.174.528-.513.528-.882V1c0-.553-.448-1-1-1zm-8.977 9c-.026 0-.65-.04-1.316-.707-.39-.39-1.024-.39-1.414 0s-.39 1.023 0 1.414c.603.604 1.214.92 1.707 1.093v.2c0 .553.447 1 1 1 .552 0 1-.447 1-1v-.185C12.16 10.4 13 9.302 13 8c0-2.28-1.727-2.712-2.758-2.97C9.127 4.75 9 4.646 9 4c0-.552.448-1 .976-1 .026 0 .65.04 1.317.707.39.39 1.023.39 1.414 0s.39-1.023 0-1.414C12.103 1.69 11.492 1.373 11 1.2V1c0-.553-.448-1-1-1-.553 0-1 .447-1 1v.185C7.838 1.6 7 2.698 7 4c0 2.28 1.726 2.712 2.757 2.97C10.872 7.25 11 7.354 11 8c0 .552-.45 1-.977 1z"></path></svg>