<svg xmlns="http://www.w3.org/2000/svg" viewBox="0 0 511.995 511.995"><path d="M278.622 224.006V110.243a151.685 151.685 0 0166.901 29.087 23.943 23.943 0 0013.251 4.201c15.222 0 27.633-12.249 27.794-27.471a24.674 24.674 0 00-7.11-17.452 170.544 170.544 0 00-101.159-40.722V19.749c0-10.892-8.823-19.715-19.715-19.715-.226-.032-.453-.032-.679-.032-11.053-.162-20.167 8.662-20.329 19.747v36.844c-72.718 5.171-122.166 50.095-122.166 109.885 0 73.364 62.376 93.726 122.166 109.885V405.64c-31.544-4.234-61.277-17.323-85.646-37.813-4.589-3.652-10.278-5.688-16.16-5.817-14.899 1.034-26.372 13.509-26.179 28.441a24.674 24.674 0 007.11 17.452 190.344 190.344 0 00121.197 48.802v35.551c0 .226.032.453.032.679.517 11.053 9.922 19.585 20.975 19.036 10.892 0 19.715-8.823 19.715-19.715v-36.197c88.231-5.817 123.782-59.467 123.782-116.349.002-76.274-63.989-99.544-123.78-115.704zM237.9 213.664c-35.228-10.342-62.699-21.007-62.699-51.064s24.886-51.711 62.699-54.619v105.683zm40.722 192.622V288.645c36.521 10.342 64.961 24.239 64.638 58.174 0 24.563-16.806 53.65-64.638 59.467z"/></svg>