<svg xmlns="http://www.w3.org/2000/svg" viewBox="0 0 300 300"><path d="M150,300C67.3,300,0,232.7,0,150S67.3,0,150,0,300,67.3,300,150,232.7,300,150,300ZM150,9.7A140.3,140.3,0,1,0,290.3,150,140.41,140.41,0,0,0,150,9.7Z"/><path d="M150,0A150,150,0,1,0,300,150,150,150,0,0,0,150,0Zm7.3,237.1H137.9V125.8l19.4,7.3Zm26.5-111.3c-17,0-21.8-2.4-38.7-12.1s-21.8-12.1-31.5-12.1-14.5,7.3-16.9,24.2l-16.9-2.4c0-26.6,14.5-41.1,31.5-41.1s19.4,2.4,38.7,12.1,24.2,12.1,33.9,12.1,14.5-7.3,14.5-21.8h16.9C217.7,113.7,200.8,125.8,183.8,125.8Z"/></svg>