<svg xmlns="http://www.w3.org/2000/svg" viewBox="0 0 22 22">
    <path d="M10.522 0C6.99 0 3.908 2.012 2.252 4.99h2.334c.861-1.11 1.985-1.988 3.292-2.493-.3.727-.54 1.575-.723 2.494h1.967c.459-1.974 1.1-2.995 1.4-2.995.3 0 .94 1.021 1.399 2.995h1.967c-.183-.919-.424-1.767-.723-2.494 1.307.505 2.431 1.384 3.292 2.494h2.335C17.136 2.012 14.053 0 10.522 0zM0 6.987l1.188 5.988H2.44l.813-3.464.81 3.464H5.31l1.189-5.988H5.059l-.514 3.359-.764-3.36H2.716l-.766 3.365-.508-3.364H0zm7.273 0l1.188 5.988h1.252l.812-3.464.811 3.464h1.246l1.189-5.988h-1.437l-.516 3.359-.762-3.36H9.989l-.764 3.365-.51-3.364H7.273zm7.273 0l.79 3.98a4.873 4.873 0 0 1 1.087-1.103l-.435-2.877h-1.442zm2.716 0l-.624 2.747a4.604 4.604 0 0 1 2.152-.716l-.463-2.031h-1.065zm2.343 0L19.297 9c.453.016.886.106 1.298.245l.448-2.26h-1.438zm-.475 3.992c-1.957 0-2.87 1.787-2.87 2.995h1.914c0-.165.166-.999.956-.999.946 0 .957.989.957.999 0 1.052-1.913 3.019-1.913 3.992h1.913c0-.984 1.913-2.573 1.913-3.992 0-1.473-1.073-2.995-2.87-2.995zM2.251 14.972c1.657 2.978 4.74 4.99 8.27 4.99 2.162 0 4.143-.767 5.744-2.035.01-.69.26-1.326.61-1.957H15.524a7.476 7.476 0 0 1-2.358 1.495c.299-.727.538-1.575.721-2.493H11.92c-.458 1.973-1.1 2.994-1.4 2.994-.299 0-.938-1.021-1.397-2.994H7.155c.184.918.425 1.766.723 2.493-1.306-.505-2.43-1.383-3.292-2.493H2.251zm15.923 4.99v1.996h1.913v-1.996h-1.913z"/>
</svg>